<svg width="304" height="395" viewBox="0 0 304 395" fill="none" xmlns="http://www.w3.org/2000/svg">
<g clip-path="url(#clip0_1_1361)" filter="url(#filter0_d_1_1361)">
<path d="M326.764 521.404C261.431 530.694 191.882 490.963 152.925 422.093C151.128 418.919 149.317 415.36 149.493 411.512C149.957 401.064 162.749 400.657 167.478 392.237C174.31 380.073 160.331 365.426 148.725 361.049C132.792 355.034 115.122 350.684 103.983 334.873C89.7408 314.629 92.0658 283.937 98.5084 258.875C104.951 233.814 114.719 208.891 112.501 182.343C110.754 161.659 104.446 133.668 119.448 125.848C128.563 121.103 138.901 129.19 146.279 138.028C170.076 166.537 185.287 207.36 214.086 226.964C234.502 240.859 258.768 241.772 279.828 253.974C303.379 267.619 320.943 294.279 333.976 322.61C345.277 347.115 353.989 374.343 354.355 402.306C354.721 430.269 345.666 459.068 327.39 474.116" fill="#194429"/>
<path d="M164.435 695.476C199.796 663.676 230.193 624.596 254.219 580.048C267.79 554.858 279.23 528.109 290.128 501.126C297.845 482.046 305.376 462.643 309.419 441.998C313.161 422.934 313.856 403.213 314.088 383.621C314.486 350.484 313.625 317.376 311.503 284.299C308.988 245.002 304.422 204.854 288.924 170.129C283.649 158.3 276.15 146.404 265.243 143.43C249.592 139.153 235.206 154.925 226.226 170.915C213.419 193.748 204.865 219.528 196.769 245.264C169.289 332.651 145.645 424.761 151.953 517.823" fill="#198C36"/>
<path d="M235.957 507.158C242.95 484.992 249.015 462.444 254.15 439.514C259.285 416.583 263.453 393.378 266.655 369.898C269.885 346.507 272.151 322.974 273.454 299.297C274.757 275.62 275.085 251.934 274.436 228.239C273.783 204.497 272.148 180.783 269.531 157.231C269.223 154.301 268.883 151.37 268.512 148.437C268.049 144.722 263.334 146.087 263.784 149.779C266.615 173.071 268.47 196.519 269.342 220.035C270.206 243.515 270.107 267.006 269.045 290.509C267.98 314.055 265.959 337.515 262.982 360.887C260.024 384.07 256.115 407.038 251.255 429.79C246.395 452.542 240.607 474.988 233.891 497.128C233.048 499.909 232.188 502.693 231.311 505.481C230.195 508.973 234.85 510.65 235.957 507.158Z" fill="#153A23"/>
<path d="M274.27 229.453C277.674 216.855 278.137 213.926 283.301 202.264C283.908 200.877 290.93 185.929 289.758 185.066C288.706 184.281 282.63 193.687 282.014 195.091C276.66 207.181 273.149 214.7 269.619 227.76C268.656 231.307 273.302 233.001 274.27 229.453Z" fill="#153A23"/>
<path d="M273.561 301.502C277.132 284.544 278.656 278.111 284.214 262.016C284.714 260.563 292.319 243.688 291.161 243.259C289.804 242.763 285.631 249.853 284.899 251.167C272.329 273.673 272.468 282.845 268.892 299.804C268.137 303.435 272.778 305.145 273.561 301.502Z" fill="#153A23"/>
<path d="M268.897 352.427C274.096 332.447 280.125 312.793 286.96 293.538C288.878 288.136 288.813 288.097 290.865 282.762C291.416 281.336 294.672 270.821 293.468 269.925C292.453 269.173 286.298 280.985 285.742 282.422C278.332 301.742 274.723 313.42 268.948 333.536C267.314 339.239 265.747 344.968 264.247 350.723C263.311 354.315 267.966 356.014 268.897 352.427Z" fill="#153A23"/>
<path d="M261.736 397.243C271.597 382.841 283.635 361.333 290.73 344.748C301.981 318.416 290.045 333.609 286.599 341.685C279.693 357.835 270.416 372.343 260.829 386.35C259.99 387.564 259.763 389.235 260.741 390.471C261.56 391.501 260.24 395.094 261.079 393.868L261.741 397.243H261.736Z" fill="#153A23"/>
<path d="M215.707 419.977C158.78 434.958 96.8457 419.849 49.2186 379.372C29.9834 363.026 12.1656 340.76 8.37689 312.758C7.95078 309.583 7.80256 305.986 9.51164 303.513C10.9474 301.463 13.2633 300.739 15.4262 300.238C66.1704 288.353 116.215 324.915 153.486 368.127C144.957 343.6 140.713 317.225 141.018 290.642C141.11 283.051 143.38 273.194 149.674 272.96C153.569 272.815 156.622 276.758 159.081 280.434C182.798 316.116 201.019 356.608 212.887 400" fill="#1F7A36"/>
<path d="M9.17354 304.259C34.2353 296.546 60.9042 301.792 84.4468 313.766C108.893 326.191 130.096 345.895 149.452 367.453C160.637 379.912 171.29 393.072 181.924 406.193C184.268 409.095 188.168 405.519 187.172 401.972C178.784 371.981 170.1 342.097 161.985 311.995C155.658 288.537 152.791 293.171 157.923 313.849C165.435 344.18 172.601 374.554 180.998 404.522L186.255 400.301C167.07 376.581 147.729 352.717 125.427 333.186C103.622 314.106 78.8147 299.269 51.9374 294.435C36.9726 291.745 21.7438 292.285 7.05688 296.808C5.34781 297.331 4.49096 299.91 5.0236 301.82C5.63497 303.953 7.46447 304.783 9.17354 304.259Z" fill="#163A24"/>
<path d="M221.27 411.623C197.513 411.572 173.852 407.999 150.823 400.986C127.759 393.989 105.488 383.649 84.4977 370.193C72.7519 362.669 67.5691 362.853 54.4848 351.197C53.0953 349.938 39.432 337.274 38.1768 338.994C37.0976 340.465 44.9297 349.387 46.3701 350.645C66.0353 367.911 87.3934 382.199 109.962 393.189C132.611 404.222 156.295 411.89 180.488 416.023C194.138 418.325 207.904 419.482 221.687 419.487C225.855 419.487 225.461 411.623 221.27 411.623Z" fill="#194429"/>
<path d="M73.6736 345.294C91.8574 359.601 105.766 380.129 122.144 397.088C125.335 400.39 136.58 400.702 133.38 397.394C116.535 379.99 100.435 359.167 81.728 344.447C80.2505 343.283 67.1198 335.425 66.3834 337.174C65.5034 339.212 72.1915 344.13 73.6736 345.294Z" fill="#194429"/>
<path d="M122.222 365.766C135.941 381.627 141.133 394.542 155.315 408.02C158.609 411.144 173.527 412.13 170.215 408.983C156.024 395.511 140.24 376.554 126.836 361.957C114.256 348.256 106.498 346.881 122.222 365.766Z" fill="#194429"/>
<path d="M57.977 255.072C57.6528 249.324 57.7408 239.077 58.2781 233.352C58.3892 232.238 58.8154 230.818 59.7463 230.912C60.5985 230.985 60.8903 232.293 60.9737 233.307C61.5017 239.712 62.0081 246.127 62.4929 252.554C66.9993 250.139 71.9278 249.081 76.8509 249.475C76.9885 249.488 77.1204 249.546 77.2327 249.642C77.3449 249.739 77.4331 249.87 77.4879 250.023C77.5426 250.175 77.5619 250.342 77.5435 250.507C77.5251 250.671 77.4698 250.826 77.3836 250.956C75.3505 253.987 72.5846 256.184 69.4681 257.244C68.3426 257.617 67.055 257.973 66.5039 259.204C66.1426 260 66.2306 260.958 66.2954 261.855C66.7423 267.412 66.571 273.016 65.786 278.518C65.7501 278.729 65.6619 278.923 65.533 279.073C65.4041 279.223 65.2405 279.322 65.0637 279.359C64.8868 279.395 64.705 279.366 64.5421 279.275C64.3793 279.185 64.2429 279.038 64.151 278.852C61.9649 274.597 62.215 268.711 60.7097 263.815C60.5821 263.247 60.3081 262.742 59.9269 262.373C59.3757 262.04 58.7454 261.947 58.1438 262.111C53.4394 262.725 48.7033 262.911 43.9756 262.668C42.6973 262.596 40.9512 261.649 41.4838 260.284C41.6789 259.879 41.9755 259.557 42.3314 259.365C44.7611 257.715 47.4359 256.652 50.2052 256.236L57.977 255.072Z" fill="#FBC8B8"/>
<path d="M283.403 84.0954C284.603 76.4822 287.613 63.1717 289.938 55.9317C290.402 54.5338 291.328 52.8519 292.537 53.3532C293.621 53.7987 293.644 55.6198 293.463 56.9732C292.327 65.5127 291.17 74.0726 289.994 82.653C296.544 81.3477 303.26 81.9863 309.558 84.5131C309.732 84.588 309.886 84.7183 310.004 84.8901C310.121 85.0618 310.198 85.2687 310.225 85.4886C310.253 85.7086 310.23 85.9334 310.16 86.1391C310.09 86.3449 309.975 86.524 309.827 86.6573C306.326 89.774 302.107 91.5043 297.752 91.6083C296.177 91.6083 294.403 91.5693 293.333 92.9449C292.643 93.8416 292.486 95.1169 292.314 96.2865C291.325 103.704 289.516 110.93 286.937 117.773C286.831 118.032 286.662 118.247 286.453 118.39C286.243 118.532 286.003 118.595 285.763 118.57C285.523 118.545 285.295 118.434 285.109 118.251C284.923 118.068 284.787 117.822 284.719 117.544C283.074 111.106 285.061 103.543 284.482 96.5984C284.473 95.8057 284.258 95.0365 283.866 94.3985C283.315 93.6634 282.431 93.4684 281.62 93.3237C275.323 92.2016 269.105 90.5112 263.019 88.2668C261.384 87.6486 259.37 85.6993 260.449 84.14C260.817 83.6913 261.294 83.3932 261.81 83.2879C265.447 82.129 269.238 81.8358 272.968 82.4246L283.403 84.0954Z" fill="#FBC8B8"/>
<path d="M17.9598 374.253C13.9025 378.87 14.8983 388.633 21.855 386.294C32.1187 382.825 24.9119 366.345 17.9598 374.253Z" fill="#F7BC28"/>
<path d="M179.103 222.725C175.449 223.098 172.508 228.617 176.788 230.845C183.156 234.142 185.361 222.096 179.103 222.725Z" fill="#F7BC28"/>
<path d="M192.707 169.138C188.649 173.761 189.65 183.523 196.602 181.179C206.865 177.709 199.659 161.235 192.707 169.138Z" fill="#F7BC28"/>
</g>
<defs>
<filter id="filter0_d_1_1361" x="0" y="0" width="308" height="408" filterUnits="userSpaceOnUse" color-interpolation-filters="sRGB">
<feFlood flood-opacity="0" result="BackgroundImageFix"/>
<feColorMatrix in="SourceAlpha" type="matrix" values="0 0 0 0 0 0 0 0 0 0 0 0 0 0 0 0 0 0 127 0" result="hardAlpha"/>
<feOffset dy="4"/>
<feGaussianBlur stdDeviation="2"/>
<feComposite in2="hardAlpha" operator="out"/>
<feColorMatrix type="matrix" values="0 0 0 0 0 0 0 0 0 0 0 0 0 0 0 0 0 0 0.25 0"/>
<feBlend mode="normal" in2="BackgroundImageFix" result="effect1_dropShadow_1_1361"/>
<feBlend mode="normal" in="SourceGraphic" in2="effect1_dropShadow_1_1361" result="shape"/>
</filter>
<clipPath id="clip0_1_1361">
<rect width="300" height="400" fill="white" transform="translate(4)"/>
</clipPath>
</defs>
</svg>
